<svg xmlns="http://www.w3.org/2000/svg" xmlns:ns1="http://www.w3.org/1999/xlink" width="100%" height="100%" baseProfile="tiny" preserveAspectRatio="xMidYMid meet" version="1.2" viewBox="(0 0 599.4 647.8)"><defs><g id="simple-arrow"><polyline fill="none" stroke="#000" stroke-width="1" points="-10 4 0 0 -10 -4"/></g><g id="whole-drawing"><text x="64.4" y="32.1" font-family="sans-serif" font-size="20" text-anchor="middle">user-agent</text><line x1="64.4" x2="64.4" y1="44.2" y2="645.8" stroke="#000" stroke-width="1"/><text x="314.4" y="32.1" font-family="sans-serif" font-size="20" text-anchor="middle">Proxy</text><line x1="314.4" x2="314.4" y1="44.2" y2="645.8" stroke="#000" stroke-width="1"/><text x="564.4" y="32.1" font-family="sans-serif" font-size="20" text-anchor="middle">Server</text><line x1="564.4" x2="564.4" y1="44.2" y2="645.8" stroke="#000" stroke-width="1"/><use x="314.4" y="76.36" transform="rotate(0.0,314.4,76.36)" ns1:href="#simple-arrow"/><line x1="314.4" x2="64.4" y1="76.36" y2="76.36" stroke="#000" stroke-width="1"/><rect width="154" height="16.31" x="112.4" y="56.2" fill="#fff" stroke="#fff"/><text x="189.4" y="70.2" font-family="sans-serif" font-size="14" text-anchor="middle">(1) TLS ClientHello</text><rect width="200.2" height="16.31" x="89.3" y="78.67" fill="#fff" stroke="#fff"/><text x="189.4" y="92.67" font-family="sans-serif" font-size="14" text-anchor="middle">(ALPN ProtocolName: http)</text><use x="64.4" y="127.14" transform="rotate(180.0,64.4,127.14)" ns1:href="#simple-arrow"/><line x1="314.4" x2="64.4" y1="127.14" y2="127.14" stroke="#000" stroke-width="1"/><rect width="107.8" height="16.31" x="135.5" y="106.98" fill="#fff" stroke="#fff"/><text x="189.4" y="120.98" font-family="sans-serif" font-size="14" text-anchor="middle">(2) TLS Error</text><rect width="100.1" height="16.31" x="139.35" y="129.45" fill="#fff" stroke="#fff"/><text x="189.4" y="143.45" font-family="sans-serif" font-size="14" text-anchor="middle">(Proxy Cert)</text><use x="64.4" y="206.76" transform="rotate(180.0,64.4,206.76)" ns1:href="#simple-arrow"/><line x1="139.4" x2="64.4" y1="157.76" y2="157.76" stroke="#000" stroke-width="1"/><line x1="139.4" x2="139.4" y1="206.76" y2="157.76" stroke="#000" stroke-width="1"/><rect width="254.1" height="16.31" x="12.35" y="174.42" fill="#fff" stroke="#fff"/><text x="139.4" y="188.42" font-family="sans-serif" font-size="14" text-anchor="middle">(inform user of the SecureProxy)</text><line x1="64.4" x2="139.4" y1="206.76" y2="206.76" stroke="#000" stroke-width="1"/><use x="314.4" y="238.92" transform="rotate(0.0,314.4,238.92)" ns1:href="#simple-arrow"/><line x1="314.4" x2="64.4" y1="238.92" y2="238.92" stroke="#000" stroke-width="1"/><rect width="154" height="16.31" x="112.4" y="218.76" fill="#fff" stroke="#fff"/><text x="189.4" y="232.76" font-family="sans-serif" font-size="14" text-anchor="middle">(3) TLS ClientHello</text><use x="64.4" y="271.08" transform="rotate(180.0,64.4,271.08)" ns1:href="#simple-arrow"/><line x1="314.4" x2="64.4" y1="271.08" y2="271.08" stroke="#000" stroke-width="1"/><rect width="123.2" height="16.31" x="127.8" y="250.92" fill="#fff" stroke="#fff"/><text x="189.4" y="264.92" font-family="sans-serif" font-size="14" text-anchor="middle">(4) ServerHello</text><rect width="252" height="21" x="63.4" y="283.08" fill="#fff" stroke="#fff"/><text x="189.4" y="330.08" fill="#000" font-family="sans-serif" font-size="14" text-anchor="middle">HTTP2.0</text><rect width="244" height="294.36" x="67.4" y="336.24" fill="none" stroke="#000"/><use x="314.4" y="358.39" transform="rotate(0.0,314.4,358.39)" ns1:href="#simple-arrow"/><line x1="314.4" x2="64.4" y1="358.39" y2="358.39" stroke="#000" stroke-width="1"/><rect width="138.6" height="16.31" x="120.1" y="350.55" fill="#fff" stroke="#fff"/><text x="189.4" y="364.55" font-family="sans-serif" font-size="14" text-anchor="middle">(5) stream(X) GET</text><use x="564.4" y="407.42" transform="rotate(0.0,564.4,407.42)" ns1:href="#simple-arrow"/><line x1="564.4" x2="314.4" y1="407.42" y2="407.42" stroke="#000" stroke-width="1"/><rect width="154" height="16.31" x="362.4" y="387.26" fill="#fff" stroke="#fff"/><text x="439.4" y="401.26" font-family="sans-serif" font-size="14" text-anchor="middle">(6) TLS ClientHello</text><use x="314.4" y="439.58" transform="rotate(180.0,314.4,439.58)" ns1:href="#simple-arrow"/><line x1="564.4" x2="314.4" y1="439.58" y2="439.58" stroke="#000" stroke-width="1"/><rect width="123.2" height="16.31" x="377.8" y="419.42" fill="#fff" stroke="#fff"/><text x="439.4" y="433.42" font-family="sans-serif" font-size="14" text-anchor="middle">TLS ServerHello</text><rect width="252" height="21" x="313.4" y="451.58" fill="#fff" stroke="#fff"/><text x="439.4" y="498.58" fill="#000" font-family="sans-serif" font-size="14" text-anchor="middle">HTTP2.0</text><rect width="244" height="125.86" x="317.4" y="504.74" fill="none" stroke="#000"/><use x="564.4" y="526.89" transform="rotate(0.0,564.4,526.89)" ns1:href="#simple-arrow"/><line x1="564.4" x2="314.4" y1="526.89" y2="526.89" stroke="#000" stroke-width="1"/><rect width="138.6" height="16.31" x="370.1" y="519.05" fill="#fff" stroke="#fff"/><text x="439.4" y="533.05" font-family="sans-serif" font-size="14" text-anchor="middle">(7) stream(Z) GET</text><use x="314.4" y="565.91" transform="rotate(180.0,314.4,565.91)" ns1:href="#simple-arrow"/><line x1="564.4" x2="314.4" y1="565.91" y2="565.91" stroke="#000" stroke-width="1"/><rect width="161.7" height="16.31" x="358.55" y="558.07" fill="#fff" stroke="#fff"/><text x="439.4" y="572.07" font-family="sans-serif" font-size="14" text-anchor="middle">(8) stream(Z) 200 OK</text><use x="64.4" y="604.93" transform="rotate(180.0,64.4,604.93)" ns1:href="#simple-arrow"/><line x1="314.4" x2="64.4" y1="604.93" y2="604.93" stroke="#000" stroke-width="1"/><rect width="161.7" height="16.31" x="108.55" y="597.09" fill="#fff" stroke="#fff"/><text x="189.4" y="611.09" font-family="sans-serif" font-size="14" text-anchor="middle">(9) stream(X) 200 OK</text></g></defs><use x="0" y="0" transform="scale(0.9,0.9)" ns1:href="#whole-drawing"/></svg>