<svg xmlns="http://www.w3.org/2000/svg" xmlns:ns1="http://www.w3.org/1999/xlink" width="100%" height="100%" baseProfile="tiny" preserveAspectRatio="xMidYMid meet" version="1.2" viewBox="(0 0 597.9 385.2)"><defs><g id="simple-arrow"><polyline fill="none" stroke="#000" stroke-width="1" points="-10 4 0 0 -10 -4"/></g><g id="whole-drawing"><line x1="9.4" x2="9.4" y1="44.2" y2="383.2" stroke="#fff" stroke-width="1"/><text x="139.4" y="32.1" font-family="sans-serif" font-size="20" text-anchor="middle">UAC</text><line x1="139.4" x2="139.4" y1="44.2" y2="383.2" stroke="#000" stroke-width="1"/><text x="249.4" y="32.1" font-family="sans-serif" font-size="20" text-anchor="middle">P1</text><line x1="249.4" x2="249.4" y1="44.2" y2="383.2" stroke="#000" stroke-width="1"/><text x="359.4" y="32.1" font-family="sans-serif" font-size="20" text-anchor="middle">P2</text><line x1="359.4" x2="359.4" y1="44.2" y2="383.2" stroke="#000" stroke-width="1"/><text x="469.4" y="32.1" font-family="sans-serif" font-size="20" text-anchor="middle">P3</text><line x1="469.4" x2="469.4" y1="44.2" y2="383.2" stroke="#000" stroke-width="1"/><text x="579.4" y="32.1" font-family="sans-serif" font-size="20" text-anchor="middle">UAS</text><line x1="579.4" x2="579.4" y1="44.2" y2="383.2" stroke="#000" stroke-width="1"/><line x1="172.4" x2="113.4" y1="56.2" y2="56.2" stroke="#000" stroke-width="5"/><line x1="183.4" x2="172.4" y1="56.2" y2="56.2" stroke="#000" stroke-width="1"/><line x1="205.4" x2="183.4" y1="77.2" y2="56.2" stroke="#000" stroke-width="1"/><line x1="216.4" x2="205.4" y1="77.2" y2="77.2" stroke="#000" stroke-width="1"/><use x="217.4" y="77.2" transform="rotate(0.0,217.4,77.2)" ns1:href="#simple-arrow"/><line x1="282.4" x2="216.4" y1="77.2" y2="77.2" stroke="#000" stroke-width="5"/><line x1="293.4" x2="282.4" y1="77.2" y2="77.2" stroke="#000" stroke-width="1"/><line x1="315.4" x2="293.4" y1="98.2" y2="77.2" stroke="#000" stroke-width="1"/><line x1="326.4" x2="315.4" y1="98.2" y2="98.2" stroke="#000" stroke-width="1"/><use x="327.4" y="98.2" transform="rotate(0.0,327.4,98.2)" ns1:href="#simple-arrow"/><line x1="392.4" x2="326.4" y1="98.2" y2="98.2" stroke="#000" stroke-width="5"/><line x1="403.4" x2="392.4" y1="98.2" y2="98.2" stroke="#000" stroke-width="1"/><line x1="425.4" x2="403.4" y1="119.2" y2="98.2" stroke="#000" stroke-width="1"/><line x1="436.4" x2="425.4" y1="119.2" y2="119.2" stroke="#000" stroke-width="1"/><use x="437.4" y="119.2" transform="rotate(0.0,437.4,119.2)" ns1:href="#simple-arrow"/><line x1="502.4" x2="436.4" y1="119.2" y2="119.2" stroke="#000" stroke-width="5"/><line x1="513.4" x2="502.4" y1="119.2" y2="119.2" stroke="#000" stroke-width="1"/><line x1="535.4" x2="513.4" y1="140.2" y2="119.2" stroke="#000" stroke-width="1"/><line x1="546.4" x2="535.4" y1="140.2" y2="140.2" stroke="#000" stroke-width="1"/><use x="547.4" y="140.2" transform="rotate(0.0,547.4,140.2)" ns1:href="#simple-arrow"/><line x1="612.4" x2="546.4" y1="140.2" y2="140.2" stroke="#000" stroke-width="5"/><line x1="172.4" x2="113.4" y1="196.2" y2="196.2" stroke="#000" stroke-width="5"/><line x1="232.9" x2="282.4" y1="224.2" y2="224.2" stroke="#000" stroke-width="5"/><line x1="216.4" x2="232.9" y1="224.2" y2="224.2" stroke="#000" stroke-width="5"/><rect width="30.8" height="16.31" x="209.25" y="216.36" fill="#fff" stroke="#fff"/><text x="224.65" y="230.36" font-family="sans-serif" font-size="14" text-anchor="middle">408</text><line x1="194.4" x2="216.4" y1="224.2" y2="224.2" stroke="#000" stroke-width="1"/><line x1="166.9" x2="194.4" y1="245.2" y2="224.2" stroke="#000" stroke-width="1"/><line x1="139.4" x2="166.9" y1="245.2" y2="245.2" stroke="#000" stroke-width="1"/><use x="138.4" y="245.2" transform="rotate(180.0,138.4,245.2)" ns1:href="#simple-arrow"/><line x1="348.4" x2="392.4" y1="245.2" y2="245.2" stroke="#000" stroke-width="5"/><line x1="326.4" x2="348.4" y1="245.2" y2="245.2" stroke="#000" stroke-width="5"/><rect width="30.8" height="16.31" x="322" y="237.36" fill="#fff" stroke="#fff"/><text x="337.4" y="251.36" font-family="sans-serif" font-size="14" text-anchor="middle">408</text><line x1="304.4" x2="326.4" y1="245.2" y2="245.2" stroke="#000" stroke-width="1"/><line x1="282.4" x2="304.4" y1="266.2" y2="245.2" stroke="#000" stroke-width="1"/><line x1="260.4" x2="282.4" y1="266.2" y2="266.2" stroke="#000" stroke-width="1"/><use x="259.4" y="266.2" transform="rotate(180.0,259.4,266.2)" ns1:href="#simple-arrow"/><line x1="238.4" x2="260.4" y1="266.2" y2="266.2" stroke="#000" stroke-width="5"/><line x1="216.4" x2="238.4" y1="266.2" y2="266.2" stroke="#000" stroke-width="5"/><rect width="30.8" height="16.31" x="212" y="258.36" fill="#fff" stroke="#fff"/><text x="227.4" y="272.36" font-family="sans-serif" font-size="14" text-anchor="middle">408</text><line x1="194.4" x2="216.4" y1="266.2" y2="266.2" stroke="#000" stroke-width="1"/><line x1="166.9" x2="194.4" y1="287.2" y2="266.2" stroke="#000" stroke-width="1"/><line x1="139.4" x2="166.9" y1="287.2" y2="287.2" stroke="#000" stroke-width="1"/><use x="138.4" y="287.2" transform="rotate(180.0,138.4,287.2)" ns1:href="#simple-arrow"/><line x1="458.4" x2="502.4" y1="266.2" y2="266.2" stroke="#000" stroke-width="5"/><line x1="436.4" x2="458.4" y1="266.2" y2="266.2" stroke="#000" stroke-width="5"/><rect width="30.8" height="16.31" x="432" y="258.36" fill="#fff" stroke="#fff"/><text x="447.4" y="272.36" font-family="sans-serif" font-size="14" text-anchor="middle">408</text><line x1="414.4" x2="436.4" y1="266.2" y2="266.2" stroke="#000" stroke-width="1"/><line x1="392.4" x2="414.4" y1="287.2" y2="266.2" stroke="#000" stroke-width="1"/><line x1="370.4" x2="392.4" y1="287.2" y2="287.2" stroke="#000" stroke-width="1"/><use x="369.4" y="287.2" transform="rotate(180.0,369.4,287.2)" ns1:href="#simple-arrow"/><line x1="348.4" x2="370.4" y1="287.2" y2="287.2" stroke="#000" stroke-width="5"/><line x1="326.4" x2="348.4" y1="287.2" y2="287.2" stroke="#000" stroke-width="5"/><rect width="30.8" height="16.31" x="322" y="279.36" fill="#fff" stroke="#fff"/><text x="337.4" y="293.36" font-family="sans-serif" font-size="14" text-anchor="middle">408</text><line x1="304.4" x2="326.4" y1="287.2" y2="287.2" stroke="#000" stroke-width="1"/><line x1="282.4" x2="304.4" y1="308.2" y2="287.2" stroke="#000" stroke-width="1"/><line x1="260.4" x2="282.4" y1="308.2" y2="308.2" stroke="#000" stroke-width="1"/><use x="259.4" y="308.2" transform="rotate(180.0,259.4,308.2)" ns1:href="#simple-arrow"/><line x1="238.4" x2="260.4" y1="308.2" y2="308.2" stroke="#000" stroke-width="5"/><line x1="216.4" x2="238.4" y1="308.2" y2="308.2" stroke="#000" stroke-width="5"/><rect width="30.8" height="16.31" x="212" y="300.36" fill="#fff" stroke="#fff"/><text x="227.4" y="314.36" font-family="sans-serif" font-size="14" text-anchor="middle">408</text><line x1="194.4" x2="216.4" y1="308.2" y2="308.2" stroke="#000" stroke-width="1"/><line x1="166.9" x2="194.4" y1="329.2" y2="308.2" stroke="#000" stroke-width="1"/><line x1="139.4" x2="166.9" y1="329.2" y2="329.2" stroke="#000" stroke-width="1"/><use x="138.4" y="329.2" transform="rotate(180.0,138.4,329.2)" ns1:href="#simple-arrow"/><line x1="568.4" x2="612.4" y1="287.2" y2="287.2" stroke="#000" stroke-width="5"/><line x1="546.4" x2="568.4" y1="287.2" y2="287.2" stroke="#000" stroke-width="5"/><rect width="30.8" height="16.31" x="542" y="279.36" fill="#fff" stroke="#fff"/><text x="557.4" y="293.36" font-family="sans-serif" font-size="14" text-anchor="middle">408</text><line x1="524.4" x2="546.4" y1="287.2" y2="287.2" stroke="#000" stroke-width="1"/><line x1="502.4" x2="524.4" y1="308.2" y2="287.2" stroke="#000" stroke-width="1"/><line x1="480.4" x2="502.4" y1="308.2" y2="308.2" stroke="#000" stroke-width="1"/><use x="479.4" y="308.2" transform="rotate(180.0,479.4,308.2)" ns1:href="#simple-arrow"/><line x1="458.4" x2="480.4" y1="308.2" y2="308.2" stroke="#000" stroke-width="5"/><line x1="436.4" x2="458.4" y1="308.2" y2="308.2" stroke="#000" stroke-width="5"/><rect width="30.8" height="16.31" x="432" y="300.36" fill="#fff" stroke="#fff"/><text x="447.4" y="314.36" font-family="sans-serif" font-size="14" text-anchor="middle">408</text><line x1="414.4" x2="436.4" y1="308.2" y2="308.2" stroke="#000" stroke-width="1"/><line x1="392.4" x2="414.4" y1="329.2" y2="308.2" stroke="#000" stroke-width="1"/><line x1="370.4" x2="392.4" y1="329.2" y2="329.2" stroke="#000" stroke-width="1"/><use x="369.4" y="329.2" transform="rotate(180.0,369.4,329.2)" ns1:href="#simple-arrow"/><line x1="348.4" x2="370.4" y1="329.2" y2="329.2" stroke="#000" stroke-width="5"/><line x1="326.4" x2="348.4" y1="329.2" y2="329.2" stroke="#000" stroke-width="5"/><rect width="30.8" height="16.31" x="322" y="321.36" fill="#fff" stroke="#fff"/><text x="337.4" y="335.36" font-family="sans-serif" font-size="14" text-anchor="middle">408</text><line x1="304.4" x2="326.4" y1="329.2" y2="329.2" stroke="#000" stroke-width="1"/><line x1="282.4" x2="304.4" y1="350.2" y2="329.2" stroke="#000" stroke-width="1"/><line x1="260.4" x2="282.4" y1="350.2" y2="350.2" stroke="#000" stroke-width="1"/><use x="259.4" y="350.2" transform="rotate(180.0,259.4,350.2)" ns1:href="#simple-arrow"/><line x1="238.4" x2="260.4" y1="350.2" y2="350.2" stroke="#000" stroke-width="5"/><line x1="216.4" x2="238.4" y1="350.2" y2="350.2" stroke="#000" stroke-width="5"/><rect width="30.8" height="16.31" x="212" y="342.36" fill="#fff" stroke="#fff"/><text x="227.4" y="356.36" font-family="sans-serif" font-size="14" text-anchor="middle">408</text><line x1="194.4" x2="216.4" y1="350.2" y2="350.2" stroke="#000" stroke-width="1"/><line x1="166.9" x2="194.4" y1="371.2" y2="350.2" stroke="#000" stroke-width="1"/><line x1="139.4" x2="166.9" y1="371.2" y2="371.2" stroke="#000" stroke-width="1"/><use x="138.4" y="371.2" transform="rotate(180.0,138.4,371.2)" ns1:href="#simple-arrow"/><line x1="104.3" x2="91.3" y1="57.4" y2="57.4" stroke="#000" stroke-width="1"/><line x1="97.8" x2="97.8" y1="196" y2="57.4" stroke="#000" stroke-width="1"/><use x="97.8" y="197" transform="rotate(90.0,97.8,197.0)" ns1:href="#simple-arrow"/><rect width="46.2" height="16.31" x="74.7" y="118.86" fill="#fff" stroke="#fff"/><text x="97.8" y="132.86" font-family="sans-serif" font-size="14" text-anchor="middle">64*T1</text><line x1="74.4" x2="35.4" y1="193.55" y2="193.55" stroke="#fff" stroke-width="1"/><rect width="77" height="16.31" x="16.4" y="185.71" fill="#fff" stroke="#fff"/><text x="54.9" y="199.71" font-family="sans-serif" font-size="14" text-anchor="middle">(timeout)</text></g></defs><use x="0" y="0" transform="scale(0.9,0.9)" ns1:href="#whole-drawing"/></svg>