<svg xmlns="http://www.w3.org/2000/svg" xmlns:xlink="http://www.w3.org/1999/xlink" width="100%" height="100%" baseProfile="tiny" preserveAspectRatio="xMidYMid meet" version="1.2" viewBox="(0 0 1043.6 278.1)"><defs><g id="whole-drawing"><text x="70.4" y="25.3" font-family="sans-serif" font-size="16" text-anchor="middle">0</text><text x="101.2" y="25.3" font-family="sans-serif" font-size="16" text-anchor="middle">1</text><text x="132" y="25.3" font-family="sans-serif" font-size="16" text-anchor="middle">2</text><text x="162.8" y="25.3" font-family="sans-serif" font-size="16" text-anchor="middle">3</text><text x="193.6" y="25.3" font-family="sans-serif" font-size="16" text-anchor="middle">4</text><text x="224.4" y="25.3" font-family="sans-serif" font-size="16" text-anchor="middle">5</text><text x="255.2" y="25.3" font-family="sans-serif" font-size="16" text-anchor="middle">6</text><text x="286" y="25.3" font-family="sans-serif" font-size="16" text-anchor="middle">7</text><text x="316.8" y="25.3" font-family="sans-serif" font-size="16" text-anchor="middle">8</text><text x="347.6" y="25.3" font-family="sans-serif" font-size="16" text-anchor="middle">9</text><text x="378.4" y="25.3" font-family="sans-serif" font-size="16" text-anchor="middle">10</text><text x="409.2" y="25.3" font-family="sans-serif" font-size="16" text-anchor="middle">11</text><text x="440" y="25.3" font-family="sans-serif" font-size="16" text-anchor="middle">12</text><text x="470.8" y="25.3" font-family="sans-serif" font-size="16" text-anchor="middle">13</text><text x="501.6" y="25.3" font-family="sans-serif" font-size="16" text-anchor="middle">14</text><text x="532.4" y="25.3" font-family="sans-serif" font-size="16" text-anchor="middle">15</text><text x="563.2" y="25.3" font-family="sans-serif" font-size="16" text-anchor="middle">16</text><text x="594" y="25.3" font-family="sans-serif" font-size="16" text-anchor="middle">17</text><text x="624.8" y="25.3" font-family="sans-serif" font-size="16" text-anchor="middle">18</text><text x="655.6" y="25.3" font-family="sans-serif" font-size="16" text-anchor="middle">19</text><text x="686.4" y="25.3" font-family="sans-serif" font-size="16" text-anchor="middle">20</text><text x="717.2" y="25.3" font-family="sans-serif" font-size="16" text-anchor="middle">21</text><text x="748" y="25.3" font-family="sans-serif" font-size="16" text-anchor="middle">22</text><text x="778.8" y="25.3" font-family="sans-serif" font-size="16" text-anchor="middle">23</text><text x="809.6" y="25.3" font-family="sans-serif" font-size="16" text-anchor="middle">24</text><text x="840.4" y="25.3" font-family="sans-serif" font-size="16" text-anchor="middle">25</text><text x="871.2" y="25.3" font-family="sans-serif" font-size="16" text-anchor="middle">26</text><text x="902" y="25.3" font-family="sans-serif" font-size="16" text-anchor="middle">27</text><text x="932.8" y="25.3" font-family="sans-serif" font-size="16" text-anchor="middle">28</text><text x="963.6" y="25.3" font-family="sans-serif" font-size="16" text-anchor="middle">29</text><text x="994.4" y="25.3" font-family="sans-serif" font-size="16" text-anchor="middle">30</text><text x="1025.2" y="25.3" font-family="sans-serif" font-size="16" text-anchor="middle">31</text><line x1="85.8" x2="85.8" y1="34.4" y2="37.4" stroke="#000" stroke-width="1"/><line x1="116.6" x2="116.6" y1="34.4" y2="37.4" stroke="#000" stroke-width="1"/><line x1="147.4" x2="147.4" y1="34.4" y2="37.4" stroke="#000" stroke-width="1"/><line x1="178.2" x2="178.2" y1="34.4" y2="37.4" stroke="#000" stroke-width="1"/><line x1="209" x2="209" y1="34.4" y2="37.4" stroke="#000" stroke-width="1"/><line x1="239.8" x2="239.8" y1="34.4" y2="37.4" stroke="#000" stroke-width="1"/><line x1="270.6" x2="270.6" y1="34.4" y2="37.4" stroke="#000" stroke-width="1"/><line x1="301.4" x2="301.4" y1="32.4" y2="37.4" stroke="#000" stroke-width="1"/><line x1="332.2" x2="332.2" y1="34.4" y2="37.4" stroke="#000" stroke-width="1"/><line x1="363" x2="363" y1="34.4" y2="37.4" stroke="#000" stroke-width="1"/><line x1="393.8" x2="393.8" y1="34.4" y2="37.4" stroke="#000" stroke-width="1"/><line x1="424.6" x2="424.6" y1="34.4" y2="37.4" stroke="#000" stroke-width="1"/><line x1="455.4" x2="455.4" y1="34.4" y2="37.4" stroke="#000" stroke-width="1"/><line x1="486.2" x2="486.2" y1="34.4" y2="37.4" stroke="#000" stroke-width="1"/><line x1="517" x2="517" y1="34.4" y2="37.4" stroke="#000" stroke-width="1"/><line x1="547.8" x2="547.8" y1="32.4" y2="37.4" stroke="#000" stroke-width="1"/><line x1="578.6" x2="578.6" y1="34.4" y2="37.4" stroke="#000" stroke-width="1"/><line x1="609.4" x2="609.4" y1="34.4" y2="37.4" stroke="#000" stroke-width="1"/><line x1="640.2" x2="640.2" y1="34.4" y2="37.4" stroke="#000" stroke-width="1"/><line x1="671" x2="671" y1="34.4" y2="37.4" stroke="#000" stroke-width="1"/><line x1="701.8" x2="701.8" y1="34.4" y2="37.4" stroke="#000" stroke-width="1"/><line x1="732.6" x2="732.6" y1="34.4" y2="37.4" stroke="#000" stroke-width="1"/><line x1="763.4" x2="763.4" y1="34.4" y2="37.4" stroke="#000" stroke-width="1"/><line x1="794.2" x2="794.2" y1="32.4" y2="37.4" stroke="#000" stroke-width="1"/><line x1="825" x2="825" y1="34.4" y2="37.4" stroke="#000" stroke-width="1"/><line x1="855.8" x2="855.8" y1="34.4" y2="37.4" stroke="#000" stroke-width="1"/><line x1="886.6" x2="886.6" y1="34.4" y2="37.4" stroke="#000" stroke-width="1"/><line x1="917.4" x2="917.4" y1="34.4" y2="37.4" stroke="#000" stroke-width="1"/><line x1="948.2" x2="948.2" y1="34.4" y2="37.4" stroke="#000" stroke-width="1"/><line x1="979" x2="979" y1="34.4" y2="37.4" stroke="#000" stroke-width="1"/><line x1="1009.8" x2="1009.8" y1="34.4" y2="37.4" stroke="#000" stroke-width="1"/><line x1="55" x2="1040.6" y1="37.4" y2="37.4" stroke="#000" stroke-width="1"/><text x="301.4" y="60.7" font-family="sans-serif" font-size="20" text-anchor="middle">Source Port</text><line x1="547.8" x2="547.8" y1="37.4" y2="71.5" stroke="#000" stroke-width="1"/><text x="794.2" y="60.7" font-family="sans-serif" font-size="20" text-anchor="middle">Destination Port</text><line x1="1040.6" x2="1040.6" y1="37.4" y2="71.5" stroke="#000" stroke-width="1"/><line x1="85.8" x2="85.8" y1="68.5" y2="71.5" stroke="#000" stroke-width="1"/><line x1="116.6" x2="116.6" y1="68.5" y2="71.5" stroke="#000" stroke-width="1"/><line x1="147.4" x2="147.4" y1="68.5" y2="71.5" stroke="#000" stroke-width="1"/><line x1="178.2" x2="178.2" y1="68.5" y2="71.5" stroke="#000" stroke-width="1"/><line x1="209" x2="209" y1="68.5" y2="71.5" stroke="#000" stroke-width="1"/><line x1="239.8" x2="239.8" y1="68.5" y2="71.5" stroke="#000" stroke-width="1"/><line x1="270.6" x2="270.6" y1="68.5" y2="71.5" stroke="#000" stroke-width="1"/><line x1="301.4" x2="301.4" y1="66.5" y2="71.5" stroke="#000" stroke-width="1"/><line x1="332.2" x2="332.2" y1="68.5" y2="71.5" stroke="#000" stroke-width="1"/><line x1="363" x2="363" y1="68.5" y2="71.5" stroke="#000" stroke-width="1"/><line x1="393.8" x2="393.8" y1="68.5" y2="71.5" stroke="#000" stroke-width="1"/><line x1="424.6" x2="424.6" y1="68.5" y2="71.5" stroke="#000" stroke-width="1"/><line x1="455.4" x2="455.4" y1="68.5" y2="71.5" stroke="#000" stroke-width="1"/><line x1="486.2" x2="486.2" y1="68.5" y2="71.5" stroke="#000" stroke-width="1"/><line x1="517" x2="517" y1="68.5" y2="71.5" stroke="#000" stroke-width="1"/><line x1="547.8" x2="547.8" y1="66.5" y2="71.5" stroke="#000" stroke-width="1"/><line x1="578.6" x2="578.6" y1="68.5" y2="71.5" stroke="#000" stroke-width="1"/><line x1="609.4" x2="609.4" y1="68.5" y2="71.5" stroke="#000" stroke-width="1"/><line x1="640.2" x2="640.2" y1="68.5" y2="71.5" stroke="#000" stroke-width="1"/><line x1="671" x2="671" y1="68.5" y2="71.5" stroke="#000" stroke-width="1"/><line x1="701.8" x2="701.8" y1="68.5" y2="71.5" stroke="#000" stroke-width="1"/><line x1="732.6" x2="732.6" y1="68.5" y2="71.5" stroke="#000" stroke-width="1"/><line x1="763.4" x2="763.4" y1="68.5" y2="71.5" stroke="#000" stroke-width="1"/><line x1="794.2" x2="794.2" y1="66.5" y2="71.5" stroke="#000" stroke-width="1"/><line x1="825" x2="825" y1="68.5" y2="71.5" stroke="#000" stroke-width="1"/><line x1="855.8" x2="855.8" y1="68.5" y2="71.5" stroke="#000" stroke-width="1"/><line x1="886.6" x2="886.6" y1="68.5" y2="71.5" stroke="#000" stroke-width="1"/><line x1="917.4" x2="917.4" y1="68.5" y2="71.5" stroke="#000" stroke-width="1"/><line x1="948.2" x2="948.2" y1="68.5" y2="71.5" stroke="#000" stroke-width="1"/><line x1="979" x2="979" y1="68.5" y2="71.5" stroke="#000" stroke-width="1"/><line x1="1009.8" x2="1009.8" y1="68.5" y2="71.5" stroke="#000" stroke-width="1"/><line x1="55" x2="1040.6" y1="71.5" y2="71.5" stroke="#000" stroke-width="1"/><text x="39" y="59.4" font-family="sans-serif" font-size="16" text-anchor="end">0</text><text x="547.8" y="94.8" font-family="sans-serif" font-size="20" text-anchor="middle">Sequence Number</text><line x1="1040.6" x2="1040.6" y1="71.5" y2="105.6" stroke="#000" stroke-width="1"/><line x1="85.8" x2="85.8" y1="102.6" y2="105.6" stroke="#000" stroke-width="1"/><line x1="116.6" x2="116.6" y1="102.6" y2="105.6" stroke="#000" stroke-width="1"/><line x1="147.4" x2="147.4" y1="102.6" y2="105.6" stroke="#000" stroke-width="1"/><line x1="178.2" x2="178.2" y1="102.6" y2="105.6" stroke="#000" stroke-width="1"/><line x1="209" x2="209" y1="102.6" y2="105.6" stroke="#000" stroke-width="1"/><line x1="239.8" x2="239.8" y1="102.6" y2="105.6" stroke="#000" stroke-width="1"/><line x1="270.6" x2="270.6" y1="102.6" y2="105.6" stroke="#000" stroke-width="1"/><line x1="301.4" x2="301.4" y1="100.6" y2="105.6" stroke="#000" stroke-width="1"/><line x1="332.2" x2="332.2" y1="102.6" y2="105.6" stroke="#000" stroke-width="1"/><line x1="363" x2="363" y1="102.6" y2="105.6" stroke="#000" stroke-width="1"/><line x1="393.8" x2="393.8" y1="102.6" y2="105.6" stroke="#000" stroke-width="1"/><line x1="424.6" x2="424.6" y1="102.6" y2="105.6" stroke="#000" stroke-width="1"/><line x1="455.4" x2="455.4" y1="102.6" y2="105.6" stroke="#000" stroke-width="1"/><line x1="486.2" x2="486.2" y1="102.6" y2="105.6" stroke="#000" stroke-width="1"/><line x1="517" x2="517" y1="102.6" y2="105.6" stroke="#000" stroke-width="1"/><line x1="547.8" x2="547.8" y1="100.6" y2="105.6" stroke="#000" stroke-width="1"/><line x1="578.6" x2="578.6" y1="102.6" y2="105.6" stroke="#000" stroke-width="1"/><line x1="609.4" x2="609.4" y1="102.6" y2="105.6" stroke="#000" stroke-width="1"/><line x1="640.2" x2="640.2" y1="102.6" y2="105.6" stroke="#000" stroke-width="1"/><line x1="671" x2="671" y1="102.6" y2="105.6" stroke="#000" stroke-width="1"/><line x1="701.8" x2="701.8" y1="102.6" y2="105.6" stroke="#000" stroke-width="1"/><line x1="732.6" x2="732.6" y1="102.6" y2="105.6" stroke="#000" stroke-width="1"/><line x1="763.4" x2="763.4" y1="102.6" y2="105.6" stroke="#000" stroke-width="1"/><line x1="794.2" x2="794.2" y1="100.6" y2="105.6" stroke="#000" stroke-width="1"/><line x1="825" x2="825" y1="102.6" y2="105.6" stroke="#000" stroke-width="1"/><line x1="855.8" x2="855.8" y1="102.6" y2="105.6" stroke="#000" stroke-width="1"/><line x1="886.6" x2="886.6" y1="102.6" y2="105.6" stroke="#000" stroke-width="1"/><line x1="917.4" x2="917.4" y1="102.6" y2="105.6" stroke="#000" stroke-width="1"/><line x1="948.2" x2="948.2" y1="102.6" y2="105.6" stroke="#000" stroke-width="1"/><line x1="979" x2="979" y1="102.6" y2="105.6" stroke="#000" stroke-width="1"/><line x1="1009.8" x2="1009.8" y1="102.6" y2="105.6" stroke="#000" stroke-width="1"/><line x1="55" x2="1040.6" y1="105.6" y2="105.6" stroke="#000" stroke-width="1"/><text x="39" y="93.5" font-family="sans-serif" font-size="16" text-anchor="end">8</text><text x="547.8" y="128.9" font-family="sans-serif" font-size="20" text-anchor="middle">Acknowledgement Number</text><line x1="1040.6" x2="1040.6" y1="105.6" y2="139.7" stroke="#000" stroke-width="1"/><line x1="85.8" x2="85.8" y1="136.7" y2="139.7" stroke="#000" stroke-width="1"/><line x1="116.6" x2="116.6" y1="136.7" y2="139.7" stroke="#000" stroke-width="1"/><line x1="147.4" x2="147.4" y1="136.7" y2="139.7" stroke="#000" stroke-width="1"/><line x1="178.2" x2="178.2" y1="136.7" y2="139.7" stroke="#000" stroke-width="1"/><line x1="209" x2="209" y1="136.7" y2="139.7" stroke="#000" stroke-width="1"/><line x1="239.8" x2="239.8" y1="136.7" y2="139.7" stroke="#000" stroke-width="1"/><line x1="270.6" x2="270.6" y1="136.7" y2="139.7" stroke="#000" stroke-width="1"/><line x1="301.4" x2="301.4" y1="134.7" y2="139.7" stroke="#000" stroke-width="1"/><line x1="332.2" x2="332.2" y1="136.7" y2="139.7" stroke="#000" stroke-width="1"/><line x1="363" x2="363" y1="136.7" y2="139.7" stroke="#000" stroke-width="1"/><line x1="393.8" x2="393.8" y1="136.7" y2="139.7" stroke="#000" stroke-width="1"/><line x1="424.6" x2="424.6" y1="136.7" y2="139.7" stroke="#000" stroke-width="1"/><line x1="455.4" x2="455.4" y1="136.7" y2="139.7" stroke="#000" stroke-width="1"/><line x1="486.2" x2="486.2" y1="136.7" y2="139.7" stroke="#000" stroke-width="1"/><line x1="517" x2="517" y1="136.7" y2="139.7" stroke="#000" stroke-width="1"/><line x1="547.8" x2="547.8" y1="134.7" y2="139.7" stroke="#000" stroke-width="1"/><line x1="578.6" x2="578.6" y1="136.7" y2="139.7" stroke="#000" stroke-width="1"/><line x1="609.4" x2="609.4" y1="136.7" y2="139.7" stroke="#000" stroke-width="1"/><line x1="640.2" x2="640.2" y1="136.7" y2="139.7" stroke="#000" stroke-width="1"/><line x1="671" x2="671" y1="136.7" y2="139.7" stroke="#000" stroke-width="1"/><line x1="701.8" x2="701.8" y1="136.7" y2="139.7" stroke="#000" stroke-width="1"/><line x1="732.6" x2="732.6" y1="136.7" y2="139.7" stroke="#000" stroke-width="1"/><line x1="763.4" x2="763.4" y1="136.7" y2="139.7" stroke="#000" stroke-width="1"/><line x1="794.2" x2="794.2" y1="134.7" y2="139.7" stroke="#000" stroke-width="1"/><line x1="825" x2="825" y1="136.7" y2="139.7" stroke="#000" stroke-width="1"/><line x1="855.8" x2="855.8" y1="136.7" y2="139.7" stroke="#000" stroke-width="1"/><line x1="886.6" x2="886.6" y1="136.7" y2="139.7" stroke="#000" stroke-width="1"/><line x1="917.4" x2="917.4" y1="136.7" y2="139.7" stroke="#000" stroke-width="1"/><line x1="948.2" x2="948.2" y1="136.7" y2="139.7" stroke="#000" stroke-width="1"/><line x1="979" x2="979" y1="136.7" y2="139.7" stroke="#000" stroke-width="1"/><line x1="1009.8" x2="1009.8" y1="136.7" y2="139.7" stroke="#000" stroke-width="1"/><line x1="55" x2="1040.6" y1="139.7" y2="139.7" stroke="#000" stroke-width="1"/><text x="39" y="127.6" font-family="sans-serif" font-size="16" text-anchor="end">16</text><text x="116.6" y="163" font-family="sans-serif" font-size="20" text-anchor="middle">Data Offset</text><line x1="178.2" x2="178.2" y1="139.7" y2="173.8" stroke="#000" stroke-width="1"/><text x="270.6" y="163" font-family="sans-serif" font-size="20" text-anchor="middle">Reserved</text><line x1="363" x2="363" y1="139.7" y2="173.8" stroke="#000" stroke-width="1"/><text x="378.4" y="163" font-family="sans-serif" font-size="14" text-anchor="middle">Urg</text><line x1="393.8" x2="393.8" y1="139.7" y2="173.8" stroke="#000" stroke-width="1"/><text x="409.2" y="163" font-family="sans-serif" font-size="14" text-anchor="middle">Ack</text><line x1="424.6" x2="424.6" y1="139.7" y2="173.8" stroke="#000" stroke-width="1"/><text x="440" y="163" font-family="sans-serif" font-size="14" text-anchor="middle">Psh</text><line x1="455.4" x2="455.4" y1="139.7" y2="173.8" stroke="#000" stroke-width="1"/><text x="470.8" y="163" font-family="sans-serif" font-size="14" text-anchor="middle">Rst</text><line x1="486.2" x2="486.2" y1="139.7" y2="173.8" stroke="#000" stroke-width="1"/><text x="501.6" y="163" font-family="sans-serif" font-size="14" text-anchor="middle">Syn</text><line x1="517" x2="517" y1="139.7" y2="173.8" stroke="#000" stroke-width="1"/><text x="532.4" y="163" font-family="sans-serif" font-size="14" text-anchor="middle">Fin</text><line x1="547.8" x2="547.8" y1="139.7" y2="173.8" stroke="#000" stroke-width="1"/><text x="794.2" y="163" font-family="sans-serif" font-size="20" text-anchor="middle">Window</text><line x1="1040.6" x2="1040.6" y1="139.7" y2="173.8" stroke="#000" stroke-width="1"/><line x1="85.8" x2="85.8" y1="170.8" y2="173.8" stroke="#000" stroke-width="1"/><line x1="116.6" x2="116.6" y1="170.8" y2="173.8" stroke="#000" stroke-width="1"/><line x1="147.4" x2="147.4" y1="170.8" y2="173.8" stroke="#000" stroke-width="1"/><line x1="178.2" x2="178.2" y1="170.8" y2="173.8" stroke="#000" stroke-width="1"/><line x1="209" x2="209" y1="170.8" y2="173.8" stroke="#000" stroke-width="1"/><line x1="239.8" x2="239.8" y1="170.8" y2="173.8" stroke="#000" stroke-width="1"/><line x1="270.6" x2="270.6" y1="170.8" y2="173.8" stroke="#000" stroke-width="1"/><line x1="301.4" x2="301.4" y1="168.8" y2="173.8" stroke="#000" stroke-width="1"/><line x1="332.2" x2="332.2" y1="170.8" y2="173.8" stroke="#000" stroke-width="1"/><line x1="363" x2="363" y1="170.8" y2="173.8" stroke="#000" stroke-width="1"/><line x1="393.8" x2="393.8" y1="170.8" y2="173.8" stroke="#000" stroke-width="1"/><line x1="424.6" x2="424.6" y1="170.8" y2="173.8" stroke="#000" stroke-width="1"/><line x1="455.4" x2="455.4" y1="170.8" y2="173.8" stroke="#000" stroke-width="1"/><line x1="486.2" x2="486.2" y1="170.8" y2="173.8" stroke="#000" stroke-width="1"/><line x1="517" x2="517" y1="170.8" y2="173.8" stroke="#000" stroke-width="1"/><line x1="547.8" x2="547.8" y1="168.8" y2="173.8" stroke="#000" stroke-width="1"/><line x1="578.6" x2="578.6" y1="170.8" y2="173.8" stroke="#000" stroke-width="1"/><line x1="609.4" x2="609.4" y1="170.8" y2="173.8" stroke="#000" stroke-width="1"/><line x1="640.2" x2="640.2" y1="170.8" y2="173.8" stroke="#000" stroke-width="1"/><line x1="671" x2="671" y1="170.8" y2="173.8" stroke="#000" stroke-width="1"/><line x1="701.8" x2="701.8" y1="170.8" y2="173.8" stroke="#000" stroke-width="1"/><line x1="732.6" x2="732.6" y1="170.8" y2="173.8" stroke="#000" stroke-width="1"/><line x1="763.4" x2="763.4" y1="170.8" y2="173.8" stroke="#000" stroke-width="1"/><line x1="794.2" x2="794.2" y1="168.8" y2="173.8" stroke="#000" stroke-width="1"/><line x1="825" x2="825" y1="170.8" y2="173.8" stroke="#000" stroke-width="1"/><line x1="855.8" x2="855.8" y1="170.8" y2="173.8" stroke="#000" stroke-width="1"/><line x1="886.6" x2="886.6" y1="170.8" y2="173.8" stroke="#000" stroke-width="1"/><line x1="917.4" x2="917.4" y1="170.8" y2="173.8" stroke="#000" stroke-width="1"/><line x1="948.2" x2="948.2" y1="170.8" y2="173.8" stroke="#000" stroke-width="1"/><line x1="979" x2="979" y1="170.8" y2="173.8" stroke="#000" stroke-width="1"/><line x1="1009.8" x2="1009.8" y1="170.8" y2="173.8" stroke="#000" stroke-width="1"/><line x1="55" x2="1040.6" y1="173.8" y2="173.8" stroke="#000" stroke-width="1"/><text x="39" y="161.7" font-family="sans-serif" font-size="16" text-anchor="end">24</text><text x="301.4" y="197.1" font-family="sans-serif" font-size="20" text-anchor="middle">Checksum</text><line x1="547.8" x2="547.8" y1="173.8" y2="207.9" stroke="#000" stroke-width="1"/><text x="794.2" y="197.1" font-family="sans-serif" font-size="20" text-anchor="middle">Urgent Pointer</text><line x1="1040.6" x2="1040.6" y1="173.8" y2="207.9" stroke="#000" stroke-width="1"/><line x1="85.8" x2="85.8" y1="204.9" y2="207.9" stroke="#000" stroke-width="1"/><line x1="116.6" x2="116.6" y1="204.9" y2="207.9" stroke="#000" stroke-width="1"/><line x1="147.4" x2="147.4" y1="204.9" y2="207.9" stroke="#000" stroke-width="1"/><line x1="178.2" x2="178.2" y1="204.9" y2="207.9" stroke="#000" stroke-width="1"/><line x1="209" x2="209" y1="204.9" y2="207.9" stroke="#000" stroke-width="1"/><line x1="239.8" x2="239.8" y1="204.9" y2="207.9" stroke="#000" stroke-width="1"/><line x1="270.6" x2="270.6" y1="204.9" y2="207.9" stroke="#000" stroke-width="1"/><line x1="301.4" x2="301.4" y1="202.9" y2="207.9" stroke="#000" stroke-width="1"/><line x1="332.2" x2="332.2" y1="204.9" y2="207.9" stroke="#000" stroke-width="1"/><line x1="363" x2="363" y1="204.9" y2="207.9" stroke="#000" stroke-width="1"/><line x1="393.8" x2="393.8" y1="204.9" y2="207.9" stroke="#000" stroke-width="1"/><line x1="424.6" x2="424.6" y1="204.9" y2="207.9" stroke="#000" stroke-width="1"/><line x1="455.4" x2="455.4" y1="204.9" y2="207.9" stroke="#000" stroke-width="1"/><line x1="486.2" x2="486.2" y1="204.9" y2="207.9" stroke="#000" stroke-width="1"/><line x1="517" x2="517" y1="204.9" y2="207.9" stroke="#000" stroke-width="1"/><line x1="547.8" x2="547.8" y1="202.9" y2="207.9" stroke="#000" stroke-width="1"/><line x1="578.6" x2="578.6" y1="204.9" y2="207.9" stroke="#000" stroke-width="1"/><line x1="609.4" x2="609.4" y1="204.9" y2="207.9" stroke="#000" stroke-width="1"/><line x1="640.2" x2="640.2" y1="204.9" y2="207.9" stroke="#000" stroke-width="1"/><line x1="671" x2="671" y1="204.9" y2="207.9" stroke="#000" stroke-width="1"/><line x1="701.8" x2="701.8" y1="204.9" y2="207.9" stroke="#000" stroke-width="1"/><line x1="732.6" x2="732.6" y1="204.9" y2="207.9" stroke="#000" stroke-width="1"/><line x1="763.4" x2="763.4" y1="204.9" y2="207.9" stroke="#000" stroke-width="1"/><line x1="794.2" x2="794.2" y1="202.9" y2="207.9" stroke="#000" stroke-width="1"/><line x1="825" x2="825" y1="204.9" y2="207.9" stroke="#000" stroke-width="1"/><line x1="855.8" x2="855.8" y1="204.9" y2="207.9" stroke="#000" stroke-width="1"/><line x1="886.6" x2="886.6" y1="204.9" y2="207.9" stroke="#000" stroke-width="1"/><line x1="917.4" x2="917.4" y1="204.9" y2="207.9" stroke="#000" stroke-width="1"/><line x1="948.2" x2="948.2" y1="204.9" y2="207.9" stroke="#000" stroke-width="1"/><line x1="979" x2="979" y1="204.9" y2="207.9" stroke="#000" stroke-width="1"/><line x1="1009.8" x2="1009.8" y1="204.9" y2="207.9" stroke="#000" stroke-width="1"/><line x1="55" x2="1040.6" y1="207.9" y2="207.9" stroke="#000" stroke-width="1"/><text x="39" y="195.8" font-family="sans-serif" font-size="16" text-anchor="end">32</text><text x="424.6" y="231.2" font-family="sans-serif" font-size="20" text-anchor="middle">Options</text><line x1="794.2" x2="794.2" y1="207.9" y2="242" stroke="#000" stroke-width="1"/><text x="917.4" y="231.2" font-family="sans-serif" font-size="20" text-anchor="middle">Padding</text><line x1="1040.6" x2="1040.6" y1="207.9" y2="242" stroke="#000" stroke-width="1"/><line x1="85.8" x2="85.8" y1="239" y2="242" stroke="#000" stroke-width="1"/><line x1="116.6" x2="116.6" y1="239" y2="242" stroke="#000" stroke-width="1"/><line x1="147.4" x2="147.4" y1="239" y2="242" stroke="#000" stroke-width="1"/><line x1="178.2" x2="178.2" y1="239" y2="242" stroke="#000" stroke-width="1"/><line x1="209" x2="209" y1="239" y2="242" stroke="#000" stroke-width="1"/><line x1="239.8" x2="239.8" y1="239" y2="242" stroke="#000" stroke-width="1"/><line x1="270.6" x2="270.6" y1="239" y2="242" stroke="#000" stroke-width="1"/><line x1="301.4" x2="301.4" y1="237" y2="242" stroke="#000" stroke-width="1"/><line x1="332.2" x2="332.2" y1="239" y2="242" stroke="#000" stroke-width="1"/><line x1="363" x2="363" y1="239" y2="242" stroke="#000" stroke-width="1"/><line x1="393.8" x2="393.8" y1="239" y2="242" stroke="#000" stroke-width="1"/><line x1="424.6" x2="424.6" y1="239" y2="242" stroke="#000" stroke-width="1"/><line x1="455.4" x2="455.4" y1="239" y2="242" stroke="#000" stroke-width="1"/><line x1="486.2" x2="486.2" y1="239" y2="242" stroke="#000" stroke-width="1"/><line x1="517" x2="517" y1="239" y2="242" stroke="#000" stroke-width="1"/><line x1="547.8" x2="547.8" y1="237" y2="242" stroke="#000" stroke-width="1"/><line x1="578.6" x2="578.6" y1="239" y2="242" stroke="#000" stroke-width="1"/><line x1="609.4" x2="609.4" y1="239" y2="242" stroke="#000" stroke-width="1"/><line x1="640.2" x2="640.2" y1="239" y2="242" stroke="#000" stroke-width="1"/><line x1="671" x2="671" y1="239" y2="242" stroke="#000" stroke-width="1"/><line x1="701.8" x2="701.8" y1="239" y2="242" stroke="#000" stroke-width="1"/><line x1="732.6" x2="732.6" y1="239" y2="242" stroke="#000" stroke-width="1"/><line x1="763.4" x2="763.4" y1="239" y2="242" stroke="#000" stroke-width="1"/><line x1="794.2" x2="794.2" y1="237" y2="242" stroke="#000" stroke-width="1"/><line x1="825" x2="825" y1="239" y2="242" stroke="#000" stroke-width="1"/><line x1="855.8" x2="855.8" y1="239" y2="242" stroke="#000" stroke-width="1"/><line x1="886.6" x2="886.6" y1="239" y2="242" stroke="#000" stroke-width="1"/><line x1="917.4" x2="917.4" y1="239" y2="242" stroke="#000" stroke-width="1"/><line x1="948.2" x2="948.2" y1="239" y2="242" stroke="#000" stroke-width="1"/><line x1="979" x2="979" y1="239" y2="242" stroke="#000" stroke-width="1"/><line x1="1009.8" x2="1009.8" y1="239" y2="242" stroke="#000" stroke-width="1"/><line x1="55" x2="1040.6" y1="242" y2="242" stroke="#000" stroke-width="1"/><text x="39" y="229.9" font-family="sans-serif" font-size="16" text-anchor="end">40</text><text x="547.8" y="265.3" font-family="sans-serif" font-size="20" text-anchor="middle">Data</text><line x1="1040.6" x2="1040.6" y1="242" y2="276.1" stroke="#000" stroke-width="1"/><line x1="85.8" x2="85.8" y1="273.1" y2="276.1" stroke="#000" stroke-width="1"/><line x1="116.6" x2="116.6" y1="273.1" y2="276.1" stroke="#000" stroke-width="1"/><line x1="147.4" x2="147.4" y1="273.1" y2="276.1" stroke="#000" stroke-width="1"/><line x1="178.2" x2="178.2" y1="273.1" y2="276.1" stroke="#000" stroke-width="1"/><line x1="209" x2="209" y1="273.1" y2="276.1" stroke="#000" stroke-width="1"/><line x1="239.8" x2="239.8" y1="273.1" y2="276.1" stroke="#000" stroke-width="1"/><line x1="270.6" x2="270.6" y1="273.1" y2="276.1" stroke="#000" stroke-width="1"/><line x1="301.4" x2="301.4" y1="271.1" y2="276.1" stroke="#000" stroke-width="1"/><line x1="332.2" x2="332.2" y1="273.1" y2="276.1" stroke="#000" stroke-width="1"/><line x1="363" x2="363" y1="273.1" y2="276.1" stroke="#000" stroke-width="1"/><line x1="393.8" x2="393.8" y1="273.1" y2="276.1" stroke="#000" stroke-width="1"/><line x1="424.6" x2="424.6" y1="273.1" y2="276.1" stroke="#000" stroke-width="1"/><line x1="455.4" x2="455.4" y1="273.1" y2="276.1" stroke="#000" stroke-width="1"/><line x1="486.2" x2="486.2" y1="273.1" y2="276.1" stroke="#000" stroke-width="1"/><line x1="517" x2="517" y1="273.1" y2="276.1" stroke="#000" stroke-width="1"/><line x1="547.8" x2="547.8" y1="271.1" y2="276.1" stroke="#000" stroke-width="1"/><line x1="578.6" x2="578.6" y1="273.1" y2="276.1" stroke="#000" stroke-width="1"/><line x1="609.4" x2="609.4" y1="273.1" y2="276.1" stroke="#000" stroke-width="1"/><line x1="640.2" x2="640.2" y1="273.1" y2="276.1" stroke="#000" stroke-width="1"/><line x1="671" x2="671" y1="273.1" y2="276.1" stroke="#000" stroke-width="1"/><line x1="701.8" x2="701.8" y1="273.1" y2="276.1" stroke="#000" stroke-width="1"/><line x1="732.6" x2="732.6" y1="273.1" y2="276.1" stroke="#000" stroke-width="1"/><line x1="763.4" x2="763.4" y1="273.1" y2="276.1" stroke="#000" stroke-width="1"/><line x1="794.2" x2="794.2" y1="271.1" y2="276.1" stroke="#000" stroke-width="1"/><line x1="825" x2="825" y1="273.1" y2="276.1" stroke="#000" stroke-width="1"/><line x1="855.8" x2="855.8" y1="273.1" y2="276.1" stroke="#000" stroke-width="1"/><line x1="886.6" x2="886.6" y1="273.1" y2="276.1" stroke="#000" stroke-width="1"/><line x1="917.4" x2="917.4" y1="273.1" y2="276.1" stroke="#000" stroke-width="1"/><line x1="948.2" x2="948.2" y1="273.1" y2="276.1" stroke="#000" stroke-width="1"/><line x1="979" x2="979" y1="273.1" y2="276.1" stroke="#000" stroke-width="1"/><line x1="1009.8" x2="1009.8" y1="273.1" y2="276.1" stroke="#000" stroke-width="1"/><text x="39" y="264" font-family="sans-serif" font-size="16" text-anchor="end">48</text><rect width="985.6" height="238.7" x="55" y="37.4" fill="none" stroke="#000" stroke-width="1"/></g></defs><use x="0" y="0" transform="scale(0.65,0.65)" xlink:href="#whole-drawing"/></svg>